<?xml version="1.0" encoding="utf-8"?>
<!-- Generator: Adobe Illustrator 19.1.0, SVG Export Plug-In . SVG Version: 6.00 Build 0)  -->
<svg version="1.1" id="Calque_1" xmlns="http://www.w3.org/2000/svg" xmlns:xlink="http://www.w3.org/1999/xlink" x="0px" y="0px"
	 viewBox="0 0 50 50" style="enable-background:new 0 0 50 50;" xml:space="preserve">
<g>
	<path d="M0,39.2c0-1.7,6.5-8.8,8.5-13.7c1.4-3.3,2.9-6.6,4.7-9.7c5.7-9.9,16.6-13.5,27-8.5c2,0.9,3.3,0.9,4.6-0.8
		c0.7-0.9,1.6-1.7,2.6-2.4c0.7-0.6,1.6-0.6,2.2,0.2c0.6,0.7,0.6,1.5,0,2.1c-1.8,1.8-3.6,3.7-5.5,5.4c-1.1,1-2.2,0.3-3.3-0.3
		C36.6,9.2,32.3,8,27.5,8.9c-6.7,1.2-12.5,7.7-12.9,14.5c-0.3,4.9,0.3,9.6,3.5,13.5c3.6,4.3,8.3,6.1,13.9,5.3
		c5.6-0.8,10.7-2.7,12.9-8.7c3-8.1-3.1-16.5-11.6-16c-4.8,0.3-8.1,4.4-7.5,9.1c0.5,3.3,5.1,5.6,8.1,3.9c2-1.1,2.3-2.6,1.1-4.5
		c-0.5-0.7-0.6-1.4-0.1-2.1c0.6-0.8,1.4-0.8,2.3-0.4c1.8,0.8,2.8,3.2,2.1,5.3c-0.7,2.2-2,3.9-4.2,4.9c-3.4,1.5-8.5,0.4-10.9-2.4
		c-2.4-2.8-2.6-8.3-0.4-11.7c3.7-5.6,11.4-7.3,17.5-3.7c5.2,3.1,7.9,7.9,7.7,14c-0.2,6-3.2,10.4-8.6,13.2c-3.7,1.9-7.7,2.6-11.8,3
		c-7.7,0.6-15.3,0.1-22.7-2.5c-2.1-0.7-5.9-1.8-5.9-4C0,39,0,39.9,0,39.2z M11,28.9c-1.3,2.4-2.4,4.7-3.9,6.8
		c-2.8,4-2.9,4.1,2.1,5.4c3.1,0.9,6.3,1.5,9.7,1.4C14.4,39,12.1,34.3,11,28.9z"/>
</g>
</svg>
