<?xml version="1.0" encoding="utf-8"?>
<!-- Generator: Adobe Illustrator 21.1.0, SVG Export Plug-In . SVG Version: 6.00 Build 0)  -->
<!DOCTYPE svg PUBLIC "-//W3C//DTD SVG 1.1//EN" "http://www.w3.org/Graphics/SVG/1.1/DTD/svg11.dtd">
<svg version="1.1" id="Calque_1" xmlns="http://www.w3.org/2000/svg" xmlns:xlink="http://www.w3.org/1999/xlink" x="0px"
     y="0px"
     width="30px" height="30px" viewBox="0 0 30 30" enable-background="new 0 0 30 30" xml:space="preserve">
<path d="M24.3,13.9l-5-2.7c-0.2-0.1-0.4-0.3-0.5-0.5l-2.7-5c-0.5-0.9-1.7-0.9-2.2,0l-2.7,5c-0.1,0.2-0.3,0.4-0.5,0.5l-5,2.7
	c-0.9,0.5-0.9,1.7,0,2.2l5,2.7c0.2,0.1,0.4,0.3,0.5,0.5l2.7,5c0.5,0.9,1.7,0.9,2.2,0l2.7-5c0.1-0.2,0.3-0.4,0.5-0.5l5-2.7
	C25.2,15.6,25.2,14.4,24.3,13.9z M15,17.5c-1.4,0-2.5-1.1-2.5-2.5c0-1.4,1.1-2.5,2.5-2.5s2.5,1.1,2.5,2.5
	C17.5,16.4,16.4,17.5,15,17.5z"/>
</svg>
